<?xml version="1.0" encoding="UTF-8"?>
<svg xmlns="http://www.w3.org/2000/svg" xmlns:xlink="http://www.w3.org/1999/xlink" width="16px" height="15px" viewBox="0 0 15 15" version="1.1">
<defs>
<linearGradient id="linear0" gradientUnits="userSpaceOnUse" x1="303.1" y1="36.5" x2="479.57" y2="213.02" gradientTransform="matrix(0.0199549,0,0,0.0208619,0.00000392935,0)">
<stop offset="0" style="stop-color:rgb(12.54902%,70.980392%,84.705882%);stop-opacity:1;"/>
<stop offset="1" style="stop-color:rgb(54.901961%,93.333333%,59.607843%);stop-opacity:1;"/>
</linearGradient>
<linearGradient id="linear1" gradientUnits="userSpaceOnUse" x1="179.56" y1="41.75" x2="370.03" y2="140.66" gradientTransform="matrix(0.0199549,0,0,0.0208619,0.00000392935,0)">
<stop offset="0" style="stop-color:rgb(12.54902%,70.980392%,84.705882%);stop-opacity:1;"/>
<stop offset="1" style="stop-color:rgb(54.901961%,93.333333%,59.607843%);stop-opacity:1;"/>
</linearGradient>
</defs>
<g id="surface1">
<path style=" stroke:none;fill-rule:evenodd;fill:url(#linear0);" d="M 8.191406 3.675781 C 8.152344 4.460938 8.179688 5.324219 8.183594 5.59375 C 8.183594 7.375 6.035156 7.378906 6.03125 5.597656 L 6.09375 2.933594 C 6.117188 2.085938 6.324219 1.152344 6.964844 0.589844 C 7.804688 -0.144531 9.171875 -0.00390625 10.199219 0.0390625 C 11.902344 0.101562 11.824219 2.351562 10.121094 2.285156 C 8.25 2.21875 8.257812 2.433594 8.191406 3.675781 Z M 8.191406 3.675781 "/>
<path style=" stroke:none;fill-rule:evenodd;fill:url(#linear1);" d="M 4.335938 2.542969 C 5 2.542969 5.542969 1.976562 5.542969 1.28125 C 5.542969 0.585938 5 0.015625 4.335938 0.015625 C 3.671875 0.015625 3.125 0.585938 3.125 1.28125 C 3.125 1.976562 3.671875 2.542969 4.335938 2.542969 Z M 4.335938 2.542969 "/>
<path style=" stroke:none;fill-rule:nonzero;fill:rgb(35.686275%,35.686275%,35.686275%);fill-opacity:1;" d="M 0.253906 11.902344 C 0.394531 11.902344 0.503906 11.785156 0.503906 11.632812 L 0.503906 10.378906 C 0.550781 10.292969 0.707031 10.238281 0.839844 10.238281 C 0.878906 10.238281 0.9375 10.246094 0.980469 10.246094 C 1.113281 10.246094 1.21875 10.175781 1.21875 10.015625 C 1.21875 9.84375 1.109375 9.761719 0.921875 9.761719 C 0.730469 9.761719 0.589844 9.871094 0.503906 10.03125 C 0.492188 9.894531 0.386719 9.785156 0.253906 9.785156 C 0.113281 9.785156 0 9.910156 0 10.054688 L 0 11.632812 C 0 11.785156 0.113281 11.902344 0.253906 11.902344 Z M 1.78125 11.902344 C 1.921875 11.902344 2.035156 11.785156 2.035156 11.632812 L 2.035156 10.054688 C 2.035156 9.90625 1.921875 9.785156 1.78125 9.785156 C 1.640625 9.785156 1.527344 9.90625 1.527344 10.054688 L 1.527344 11.632812 C 1.527344 11.785156 1.640625 11.902344 1.78125 11.902344 Z M 1.78125 9.582031 C 1.949219 9.582031 2.085938 9.445312 2.085938 9.269531 C 2.085938 9.097656 1.949219 8.957031 1.78125 8.957031 C 1.613281 8.957031 1.476562 9.097656 1.476562 9.269531 C 1.476562 9.445312 1.613281 9.582031 1.78125 9.582031 Z M 3.308594 11.902344 C 3.472656 11.902344 3.582031 11.800781 3.632812 11.65625 L 4.15625 10.160156 C 4.171875 10.113281 4.183594 10.070312 4.183594 10.03125 C 4.183594 9.898438 4.082031 9.785156 3.941406 9.785156 C 3.789062 9.785156 3.722656 9.871094 3.675781 10.035156 L 3.3125 11.253906 L 2.957031 10.035156 C 2.910156 9.871094 2.835938 9.785156 2.683594 9.785156 C 2.539062 9.785156 2.4375 9.894531 2.4375 10.03125 C 2.4375 10.070312 2.449219 10.113281 2.464844 10.160156 L 2.988281 11.65625 C 3.039062 11.800781 3.148438 11.902344 3.308594 11.902344 Z M 6.050781 11.828125 C 6.125 11.78125 6.179688 11.675781 6.140625 11.558594 C 6.097656 11.433594 5.984375 11.382812 5.863281 11.417969 C 5.757812 11.449219 5.65625 11.464844 5.550781 11.464844 C 5.203125 11.464844 5.019531 11.367188 4.988281 10.992188 L 6.132812 10.992188 C 6.195312 10.992188 6.25 10.9375 6.25 10.871094 C 6.25 10.101562 5.988281 9.761719 5.375 9.761719 C 4.769531 9.761719 4.476562 10.109375 4.476562 10.84375 C 4.476562 11.59375 4.777344 11.925781 5.46875 11.925781 C 5.699219 11.925781 5.941406 11.898438 6.050781 11.828125 Z M 5.367188 10.152344 C 5.609375 10.152344 5.730469 10.296875 5.746094 10.628906 L 4.988281 10.628906 C 5.015625 10.273438 5.15625 10.152344 5.367188 10.152344 Z M 6.949219 11.902344 C 7.085938 11.902344 7.199219 11.785156 7.199219 11.632812 L 7.199219 10.378906 C 7.246094 10.292969 7.402344 10.238281 7.535156 10.238281 C 7.574219 10.238281 7.632812 10.246094 7.675781 10.246094 C 7.808594 10.246094 7.910156 10.175781 7.910156 10.015625 C 7.910156 9.84375 7.804688 9.761719 7.617188 9.761719 C 7.425781 9.761719 7.285156 9.871094 7.199219 10.03125 C 7.1875 9.894531 7.078125 9.785156 6.949219 9.785156 C 6.808594 9.785156 6.695312 9.910156 6.695312 10.054688 L 6.695312 11.632812 C 6.695312 11.785156 6.808594 11.902344 6.949219 11.902344 Z M 9.085938 11.796875 C 9.085938 11.734375 9.046875 11.699219 8.988281 11.699219 L 8.949219 11.699219 C 8.71875 11.699219 8.605469 11.585938 8.605469 11.316406 L 8.605469 10.070312 L 9.128906 10.070312 C 9.1875 10.070312 9.226562 10.03125 9.226562 9.96875 C 9.226562 9.910156 9.1875 9.867188 9.128906 9.867188 L 8.605469 9.867188 L 8.605469 9.074219 C 8.605469 9.007812 8.558594 8.957031 8.492188 8.957031 C 8.425781 8.957031 8.378906 9.007812 8.378906 9.074219 L 8.378906 9.867188 L 8.171875 9.867188 C 8.113281 9.867188 8.074219 9.910156 8.074219 9.96875 C 8.074219 10.03125 8.113281 10.070312 8.171875 10.070312 L 8.378906 10.070312 L 8.378906 11.359375 C 8.378906 11.738281 8.570312 11.902344 8.949219 11.902344 C 9.027344 11.902344 9.085938 11.875 9.085938 11.796875 Z M 10.933594 11.824219 C 11.039062 11.777344 11.078125 11.71875 11.050781 11.644531 C 11.027344 11.589844 10.96875 11.578125 10.921875 11.601562 C 10.769531 11.679688 10.621094 11.714844 10.4375 11.714844 C 10.019531 11.714844 9.816406 11.488281 9.8125 10.914062 L 11.0625 10.914062 C 11.101562 10.914062 11.128906 10.886719 11.128906 10.84375 C 11.128906 10.136719 10.890625 9.828125 10.359375 9.828125 C 9.824219 9.828125 9.582031 10.15625 9.582031 10.878906 C 9.582031 11.605469 9.84375 11.917969 10.464844 11.917969 C 10.605469 11.917969 10.792969 11.894531 10.933594 11.824219 Z M 10.363281 10.03125 C 10.722656 10.03125 10.894531 10.242188 10.894531 10.71875 L 9.816406 10.71875 C 9.839844 10.214844 10.035156 10.03125 10.363281 10.03125 Z M 11.644531 10.878906 C 11.644531 11.597656 11.902344 11.917969 12.472656 11.917969 C 12.644531 11.917969 12.851562 11.875 12.929688 11.8125 C 12.984375 11.773438 13 11.71875 12.972656 11.671875 C 12.941406 11.617188 12.894531 11.609375 12.839844 11.632812 C 12.730469 11.683594 12.617188 11.714844 12.476562 11.714844 C 12.054688 11.714844 11.871094 11.464844 11.871094 10.871094 C 11.871094 10.277344 12.054688 10.03125 12.476562 10.03125 C 12.617188 10.03125 12.730469 10.0625 12.839844 10.113281 C 12.894531 10.136719 12.941406 10.128906 12.972656 10.074219 C 13 10.027344 12.984375 9.972656 12.929688 9.933594 C 12.851562 9.871094 12.644531 9.828125 12.472656 9.828125 C 11.902344 9.828125 11.644531 10.144531 11.644531 10.878906 Z M 14.894531 11.902344 C 14.960938 11.902344 15.007812 11.851562 15.007812 11.785156 L 15.007812 10.535156 C 15.007812 10.058594 14.746094 9.828125 14.328125 9.828125 C 14.101562 9.828125 13.9375 9.90625 13.804688 10.0625 L 13.804688 9.074219 C 13.804688 9.011719 13.75 8.957031 13.691406 8.957031 C 13.628906 8.957031 13.582031 9.011719 13.582031 9.074219 L 13.582031 11.785156 C 13.582031 11.851562 13.625 11.902344 13.691406 11.902344 C 13.757812 11.902344 13.804688 11.851562 13.804688 11.785156 L 13.804688 10.230469 C 13.925781 10.074219 14.089844 10.03125 14.289062 10.03125 C 14.601562 10.03125 14.78125 10.207031 14.78125 10.554688 L 14.78125 11.785156 C 14.78125 11.851562 14.828125 11.902344 14.894531 11.902344 Z M 14.894531 11.902344 "/>
<path style=" stroke:none;fill-rule:nonzero;fill:rgb(61.568627%,61.960784%,61.960784%);fill-opacity:1;" d="M 3.632812 14.589844 C 3.703125 14.589844 3.757812 14.53125 3.757812 14.460938 L 3.757812 13.324219 C 3.757812 13.25 3.703125 13.191406 3.632812 13.191406 C 3.566406 13.191406 3.511719 13.25 3.511719 13.324219 L 3.511719 14.460938 C 3.511719 14.53125 3.566406 14.589844 3.632812 14.589844 Z M 4.425781 14.601562 C 4.734375 14.601562 4.871094 14.429688 4.871094 14.089844 C 4.871094 13.75 4.734375 13.574219 4.425781 13.574219 C 4.117188 13.574219 3.980469 13.75 3.980469 14.089844 C 3.980469 14.429688 4.117188 14.601562 4.425781 14.601562 Z M 4.425781 14.382812 C 4.28125 14.382812 4.222656 14.292969 4.222656 14.089844 C 4.222656 13.882812 4.28125 13.792969 4.425781 13.792969 C 4.570312 13.792969 4.628906 13.882812 4.628906 14.089844 C 4.628906 14.292969 4.570312 14.382812 4.425781 14.382812 Z M 5.410156 14.589844 C 5.476562 14.589844 5.535156 14.53125 5.535156 14.460938 L 5.535156 13.429688 L 5.773438 13.429688 C 5.835938 13.429688 5.882812 13.378906 5.882812 13.316406 C 5.882812 13.253906 5.835938 13.203125 5.773438 13.203125 L 5.042969 13.203125 C 4.984375 13.203125 4.933594 13.253906 4.933594 13.316406 C 4.933594 13.378906 4.984375 13.429688 5.042969 13.429688 L 5.285156 13.429688 L 5.285156 14.460938 C 5.285156 14.53125 5.339844 14.589844 5.410156 14.589844 Z M 6.683594 14.597656 C 6.925781 14.597656 7.039062 14.511719 7.039062 14.3125 C 7.039062 14.167969 6.960938 14.097656 6.722656 14.027344 C 6.570312 13.984375 6.53125 13.945312 6.53125 13.871094 C 6.53125 13.773438 6.589844 13.730469 6.722656 13.730469 C 6.796875 13.730469 6.855469 13.746094 6.914062 13.769531 C 6.945312 13.785156 6.988281 13.773438 7.003906 13.730469 C 7.015625 13.691406 6.996094 13.65625 6.96875 13.644531 C 6.898438 13.613281 6.828125 13.597656 6.734375 13.597656 C 6.5 13.597656 6.382812 13.683594 6.382812 13.878906 C 6.382812 14.027344 6.460938 14.097656 6.703125 14.164062 C 6.851562 14.210938 6.894531 14.246094 6.894531 14.320312 C 6.894531 14.421875 6.832031 14.46875 6.683594 14.46875 C 6.605469 14.46875 6.539062 14.449219 6.460938 14.417969 C 6.429688 14.402344 6.390625 14.417969 6.378906 14.453125 C 6.359375 14.492188 6.378906 14.53125 6.410156 14.546875 C 6.488281 14.582031 6.574219 14.597656 6.683594 14.597656 Z M 7.367188 14.589844 C 7.410156 14.589844 7.441406 14.554688 7.441406 14.511719 L 7.441406 13.683594 C 7.441406 13.640625 7.410156 13.605469 7.367188 13.605469 C 7.328125 13.605469 7.292969 13.640625 7.292969 13.683594 L 7.292969 14.511719 C 7.292969 14.554688 7.328125 14.589844 7.367188 14.589844 Z M 7.367188 13.40625 C 7.425781 13.40625 7.46875 13.359375 7.46875 13.300781 C 7.46875 13.238281 7.425781 13.191406 7.367188 13.191406 C 7.3125 13.191406 7.269531 13.238281 7.269531 13.300781 C 7.269531 13.359375 7.3125 13.40625 7.367188 13.40625 Z M 7.8125 14.589844 C 7.851562 14.589844 7.886719 14.554688 7.886719 14.511719 L 7.886719 13.820312 C 7.933594 13.757812 8.003906 13.730469 8.089844 13.730469 C 8.234375 13.730469 8.304688 13.8125 8.304688 13.96875 L 8.304688 14.511719 C 8.304688 14.554688 8.339844 14.589844 8.378906 14.589844 C 8.421875 14.589844 8.453125 14.554688 8.453125 14.511719 L 8.453125 13.9375 C 8.453125 13.898438 8.449219 13.867188 8.445312 13.835938 C 8.507812 13.753906 8.578125 13.730469 8.65625 13.730469 C 8.804688 13.730469 8.875 13.8125 8.875 13.96875 L 8.875 14.511719 C 8.875 14.554688 8.910156 14.589844 8.949219 14.589844 C 8.988281 14.589844 9.023438 14.554688 9.023438 14.511719 L 9.023438 13.9375 C 9.023438 13.699219 8.886719 13.597656 8.679688 13.597656 C 8.574219 13.597656 8.476562 13.648438 8.410156 13.746094 C 8.355469 13.644531 8.25 13.597656 8.113281 13.597656 C 8.019531 13.597656 7.941406 13.636719 7.886719 13.710938 L 7.886719 13.683594 C 7.886719 13.640625 7.851562 13.605469 7.8125 13.605469 C 7.769531 13.605469 7.738281 13.640625 7.738281 13.683594 L 7.738281 14.511719 C 7.738281 14.554688 7.769531 14.589844 7.8125 14.589844 Z M 10.058594 14.089844 C 10.058594 13.742188 9.921875 13.597656 9.6875 13.597656 C 9.589844 13.597656 9.515625 13.636719 9.457031 13.710938 L 9.457031 13.683594 C 9.457031 13.640625 9.425781 13.605469 9.386719 13.605469 C 9.34375 13.605469 9.3125 13.640625 9.3125 13.683594 L 9.3125 14.925781 C 9.3125 14.96875 9.34375 15.003906 9.386719 15.003906 C 9.425781 15.003906 9.457031 14.96875 9.457031 14.925781 L 9.457031 14.574219 C 9.519531 14.589844 9.5625 14.597656 9.621094 14.597656 C 9.910156 14.597656 10.058594 14.429688 10.058594 14.089844 Z M 9.910156 14.085938 C 9.910156 14.34375 9.816406 14.46875 9.589844 14.46875 C 9.539062 14.46875 9.492188 14.457031 9.457031 14.441406 L 9.457031 13.820312 C 9.503906 13.757812 9.578125 13.730469 9.660156 13.730469 C 9.832031 13.730469 9.910156 13.84375 9.910156 14.085938 Z M 10.394531 14.589844 C 10.433594 14.589844 10.46875 14.554688 10.46875 14.511719 L 10.46875 13.273438 C 10.46875 13.226562 10.433594 13.191406 10.394531 13.191406 C 10.355469 13.191406 10.320312 13.226562 10.320312 13.273438 L 10.320312 14.511719 C 10.320312 14.554688 10.355469 14.589844 10.394531 14.589844 Z M 11.402344 14.550781 C 11.449219 14.527344 11.46875 14.492188 11.453125 14.453125 C 11.441406 14.421875 11.40625 14.402344 11.367188 14.421875 C 11.304688 14.449219 11.242188 14.46875 11.167969 14.46875 C 10.976562 14.46875 10.886719 14.375 10.878906 14.132812 L 11.457031 14.132812 C 11.476562 14.132812 11.496094 14.113281 11.496094 14.09375 C 11.496094 13.75 11.378906 13.597656 11.117188 13.597656 C 10.851562 13.597656 10.730469 13.757812 10.730469 14.097656 C 10.730469 14.449219 10.859375 14.597656 11.164062 14.597656 C 11.242188 14.597656 11.339844 14.585938 11.402344 14.550781 Z M 11.117188 13.726562 C 11.269531 13.726562 11.34375 13.8125 11.355469 14.007812 L 10.878906 14.007812 C 10.894531 13.796875 10.976562 13.726562 11.117188 13.726562 Z M 11.117188 13.726562 "/>
</g>
</svg>
